<svg xmlns="http://www.w3.org/2000/svg" width="900" height="240" viewBox="0 0 900 240" role="img" aria-label="Observability pipeline">
  <defs>
    <marker id="arrow" markerWidth="10" markerHeight="10" refX="9" refY="3" orient="auto">
      <path d="M0,0 L9,3 L0,6 Z" fill="#111827" />
    </marker>
  </defs>
  <rect x="30" y="60" width="140" height="60" fill="#e2e8f0" stroke="#111827" />
  <rect x="200" y="60" width="180" height="60" fill="#e2e8f0" stroke="#111827" />
  <rect x="410" y="40" width="150" height="50" fill="#fef3c7" stroke="#92400e" />
  <rect x="410" y="110" width="150" height="50" fill="#fef3c7" stroke="#92400e" />
  <rect x="590" y="60" width="150" height="60" fill="#e2e8f0" stroke="#111827" />
  <rect x="760" y="60" width="110" height="60" fill="#e2e8f0" stroke="#111827" />

  <text x="100" y="95" text-anchor="middle" font-family="Arial, sans-serif" font-size="14">App</text>
  <text x="290" y="95" text-anchor="middle" font-family="Arial, sans-serif" font-size="14">Instrumentation</text>
  <text x="485" y="70" text-anchor="middle" font-family="Arial, sans-serif" font-size="12">Logs</text>
  <text x="485" y="140" text-anchor="middle" font-family="Arial, sans-serif" font-size="12">Metrics/Traces</text>
  <text x="665" y="95" text-anchor="middle" font-family="Arial, sans-serif" font-size="14">Collector</text>
  <text x="815" y="95" text-anchor="middle" font-family="Arial, sans-serif" font-size="14">Alerts</text>

  <line x1="170" y1="90" x2="200" y2="90" stroke="#111827" stroke-width="2" marker-end="url(#arrow)" />
  <line x1="380" y1="90" x2="410" y2="90" stroke="#111827" stroke-width="2" marker-end="url(#arrow)" />
  <line x1="560" y1="90" x2="590" y2="90" stroke="#111827" stroke-width="2" marker-end="url(#arrow)" />
  <line x1="740" y1="90" x2="760" y2="90" stroke="#111827" stroke-width="2" marker-end="url(#arrow)" />
</svg>
