<svg xmlns="http://www.w3.org/2000/svg" width="900" height="240" viewBox="0 0 900 240" role="img" aria-label="SSR streaming pipeline">
  <defs>
    <marker id="arrow" markerWidth="10" markerHeight="10" refX="9" refY="3" orient="auto">
      <path d="M0,0 L9,3 L0,6 Z" fill="#111827" />
    </marker>
  </defs>
  <rect x="20" y="60" width="120" height="60" fill="#e2e8f0" stroke="#111827" />
  <rect x="160" y="60" width="120" height="60" fill="#e2e8f0" stroke="#111827" />
  <rect x="300" y="60" width="140" height="60" fill="#e2e8f0" stroke="#111827" />
  <rect x="460" y="60" width="140" height="60" fill="#e2e8f0" stroke="#111827" />
  <rect x="620" y="60" width="120" height="60" fill="#e2e8f0" stroke="#111827" />
  <rect x="760" y="60" width="120" height="60" fill="#e2e8f0" stroke="#111827" />

  <text x="80" y="95" text-anchor="middle" font-family="Arial, sans-serif" font-size="14">Client</text>
  <text x="220" y="95" text-anchor="middle" font-family="Arial, sans-serif" font-size="14">Edge</text>
  <text x="370" y="95" text-anchor="middle" font-family="Arial, sans-serif" font-size="14">SSR Stream</text>
  <text x="530" y="95" text-anchor="middle" font-family="Arial, sans-serif" font-size="14">HTML Shell</text>
  <text x="680" y="95" text-anchor="middle" font-family="Arial, sans-serif" font-size="14">Islands</text>
  <text x="820" y="95" text-anchor="middle" font-family="Arial, sans-serif" font-size="14">Hydration</text>

  <line x1="140" y1="90" x2="160" y2="90" stroke="#111827" stroke-width="2" marker-end="url(#arrow)" />
  <line x1="280" y1="90" x2="300" y2="90" stroke="#111827" stroke-width="2" marker-end="url(#arrow)" />
  <line x1="440" y1="90" x2="460" y2="90" stroke="#111827" stroke-width="2" marker-end="url(#arrow)" />
  <line x1="600" y1="90" x2="620" y2="90" stroke="#111827" stroke-width="2" marker-end="url(#arrow)" />
  <line x1="740" y1="90" x2="760" y2="90" stroke="#111827" stroke-width="2" marker-end="url(#arrow)" />

  <path d="M300,140 C360,170 440,170 500,140" fill="none" stroke="#0f766e" stroke-width="3" />
  <text x="400" y="190" text-anchor="middle" font-family="Arial, sans-serif" font-size="12" fill="#0f766e">Streaming chunks over time</text>
</svg>
