<svg xmlns="http://www.w3.org/2000/svg" width="720" height="260" viewBox="0 0 720 260" role="img" aria-label="TypeScript narrowing flow">
  <defs>
    <marker id="arrow" markerWidth="10" markerHeight="10" refX="9" refY="3" orient="auto">
      <path d="M0,0 L9,3 L0,6 Z" fill="#111827" />
    </marker>
  </defs>
  <rect x="20" y="40" width="150" height="60" fill="#e2e8f0" stroke="#111827" />
  <rect x="220" y="40" width="150" height="60" fill="#e2e8f0" stroke="#111827" />
  <rect x="420" y="20" width="150" height="60" fill="#e2e8f0" stroke="#111827" />
  <rect x="420" y="120" width="150" height="60" fill="#fee2e2" stroke="#991b1b" />
  <rect x="600" y="40" width="100" height="60" fill="#e2e8f0" stroke="#111827" />

  <text x="95" y="75" text-anchor="middle" font-family="Arial, sans-serif" font-size="14">unknown</text>
  <text x="295" y="75" text-anchor="middle" font-family="Arial, sans-serif" font-size="14">type guard</text>
  <text x="495" y="55" text-anchor="middle" font-family="Arial, sans-serif" font-size="12">narrowed</text>
  <text x="495" y="70" text-anchor="middle" font-family="Arial, sans-serif" font-size="12">union</text>
  <text x="495" y="155" text-anchor="middle" font-family="Arial, sans-serif" font-size="12">error</text>
  <text x="495" y="170" text-anchor="middle" font-family="Arial, sans-serif" font-size="12">path</text>
  <text x="650" y="75" text-anchor="middle" font-family="Arial, sans-serif" font-size="12">switch</text>

  <line x1="170" y1="70" x2="220" y2="70" stroke="#111827" stroke-width="2" marker-end="url(#arrow)" />
  <line x1="370" y1="70" x2="420" y2="50" stroke="#111827" stroke-width="2" marker-end="url(#arrow)" />
  <line x1="370" y1="70" x2="420" y2="150" stroke="#991b1b" stroke-width="2" marker-end="url(#arrow)" />
  <line x1="570" y1="50" x2="600" y2="70" stroke="#111827" stroke-width="2" marker-end="url(#arrow)" />

  <text x="390" y="40" font-family="Arial, sans-serif" font-size="10" fill="#111827">true</text>
  <text x="390" y="130" font-family="Arial, sans-serif" font-size="10" fill="#991b1b">false</text>
</svg>
